<svg width="23" height="11" viewBox="0 0 23 11" fill="none" xmlns="http://www.w3.org/2000/svg">
<path id="Arrow 8" d="M0.54246 5.18943C0.289768 5.44213 0.289768 5.85182 0.54246 6.10451L4.66032 10.2224C4.91301 10.4751 5.3227 10.4751 5.5754 10.2224C5.82809 9.96968 5.82809 9.55998 5.5754 9.30729L1.91508 5.64697L5.5754 1.98666C5.82809 1.73396 5.82809 1.32427 5.5754 1.07158C5.3227 0.818884 4.91301 0.818884 4.66032 1.07158L0.54246 5.18943ZM21.7059 6.29403L22.3529 6.29403L22.3529 4.99991L21.7059 4.99991L21.7059 6.29403ZM1 6.29403L21.7059 6.29403L21.7059 4.99991L1 4.99991L1 6.29403Z" fill="black"/>
</svg>
