<svg width="24" height="25" viewBox="0 0 24 25" fill="none" xmlns="http://www.w3.org/2000/svg">
<g id="Handlekurv">
<g id="Group 4">
<path id="Rectangle 2" d="M2.44259 7.96735C2.50599 7.3279 3.0439 6.8407 3.68648 6.8407H20.3134C20.956 6.8407 21.4939 7.3279 21.5573 7.96736L23.0357 22.8764C23.1086 23.6119 22.5309 24.2498 21.7918 24.2498H2.20812C1.46901 24.2498 0.891294 23.6119 0.964225 22.8764L2.44259 7.96735Z" stroke="black" stroke-width="1.5"/>
<path id="Ellipse 1" d="M16.7792 9.72727C16.7792 7.67514 17.0056 4.71736 15.9737 3.26628C14.9418 1.81521 13.5422 1 12.0829 1C10.6235 1 9.22395 1.81521 8.19204 3.26628C7.16014 4.71736 7.20041 7.67514 7.20041 9.72727" stroke="black" stroke-width="1.5" stroke-linecap="round"/>
</g>
</g>
</svg>
