<svg width="40" height="36" viewBox="0 0 40 36" fill="none" xmlns="http://www.w3.org/2000/svg">
<g id="Heart">
<path id="Union" d="M20 8.99096L19.0773 6.78169C17.6582 3.38409 14.306 1 10.4 1C5.20901 1 1 5.21045 1 10.4054C1 12.7856 1.8823 14.957 3.33885 16.614C3.33886 16.614 3.33887 16.614 3.33888 16.614L3.31648 16.6337L3.46604 16.793M20 8.99096L1.96597 16.4949C0.729021 14.7829 0 12.6793 0 10.4054C0 4.65866 4.65624 0 10.4 0C14.2662 0 17.6396 2.11074 19.432 5.24329C19.3046 5.49396 19.1862 5.74997 19.0773 6.01088L20 6.39628L20.9227 6.01088C20.8138 5.74997 20.6954 5.49396 20.568 5.24329C22.3604 2.11074 25.7338 0 29.6 0C35.3438 0 40 4.65866 40 10.4054C40 12.8385 39.1653 15.0766 37.7668 16.8486C37.5994 16.7035 37.379 16.6113 37.1211 16.6091L37.1125 17.6009M20 8.99096L20.9227 6.78169C22.3418 3.38409 25.694 1 29.6 1C34.791 1 39 5.21045 39 10.4054C39 12.9305 38.0068 15.2214 36.388 16.9117M20 8.99096L36.388 16.9117M3.46604 16.793C3.70359 17.2164 3.58872 17.7296 3.25739 18.0317L19.6353 35.4737C19.8329 35.6841 20.167 35.684 20.3645 35.4735L36.4305 18.3443C36.0857 18.0219 35.9857 17.4674 36.283 17.0397M3.46604 16.793L19.9996 34.4008L36.283 17.0397M36.283 17.0397L36.3852 16.9308C35.9783 17.3649 36.0588 17.9913 36.4315 18.3432L37.1124 17.6172L37.1148 17.6146C37.1168 17.6125 37.1153 17.6091 37.1125 17.6091C37.1111 17.6091 37.11 17.6082 37.1095 17.6072C37.109 17.606 37.1091 17.6046 37.1101 17.6035M36.283 17.0397C36.3137 16.9956 36.3487 16.9528 36.388 16.9117M37.1101 17.6035C37.1109 17.6026 37.1117 17.6018 37.1125 17.6009M37.1101 17.6035L36.388 16.9117M37.1101 17.6035L36.3879 16.9118C36.3879 16.9118 36.388 16.9117 36.388 16.9117M37.1125 17.6009C37.3419 17.3613 37.5599 17.1107 37.7657 16.8501C37.599 16.7042 37.379 16.6115 37.1217 16.6091L37.1125 17.6009Z" stroke="black" stroke-width="2"/>
</g>
</svg>
