<svg width="103" height="103" viewBox="0 0 103 103" fill="none" xmlns="http://www.w3.org/2000/svg">
<g id="&#240;&#159;&#166;&#134; icon &#34;medal star&#34;">
<g id="Group">
<path id="Vector" d="M99.2782 84.8489L90.7791 86.8581C88.8732 87.3217 87.3794 88.7642 86.9674 90.6703L85.1645 98.2433C84.1859 102.365 78.9319 103.653 76.2019 100.407L60.8005 82.6852C59.5642 81.2427 60.2339 78.976 62.0882 78.5123C71.2054 76.2971 79.3955 71.197 85.4221 63.9331C86.4008 62.7482 88.1521 62.5937 89.2338 63.6755L100.669 75.1122C104.584 79.0275 103.193 83.9216 99.2782 84.8489Z" fill="white"/>
<path id="Vector_2" d="M3.72221 84.8489L12.2213 86.8581C14.1272 87.3217 15.6209 88.7642 16.033 90.6703L17.8358 98.2433C18.8145 102.365 24.0685 103.653 26.7985 100.407L42.2 82.6852C43.4362 81.2427 42.7666 78.976 40.9122 78.5123C31.795 76.2971 23.6049 71.197 17.5783 63.9331C16.5996 62.7482 14.8483 62.5937 13.7666 63.6755L2.33145 75.1122C-1.58328 79.0275 -0.192524 83.9216 3.72221 84.8489Z" fill="white"/>
<path id="Vector_3" d="M51.63 0C31.6958 0 15.5732 16.1248 15.5732 36.0617C15.5732 43.5317 17.7882 50.3834 21.5999 56.1018C27.1629 64.3445 35.9711 70.1659 46.2215 71.6599C47.9728 71.9689 49.7756 72.1235 51.63 72.1235C53.4843 72.1235 55.2872 71.9689 57.0385 71.6599C67.2889 70.1659 76.0971 64.3445 81.6601 56.1018C85.4718 50.3834 87.6867 43.5317 87.6867 36.0617C87.6867 16.1248 71.5642 0 51.63 0ZM67.3919 34.9284L63.1166 39.2043C62.3955 39.9255 61.9834 41.3165 62.241 42.3468L63.4772 47.653C64.4559 51.8259 62.241 53.4744 58.5323 51.2592L53.3813 48.2197C52.4541 47.653 50.9088 47.653 49.9817 48.2197L44.8307 51.2592C41.122 53.4229 38.9071 51.8259 39.8858 47.653L41.122 42.3468C41.3281 41.368 40.9675 39.9255 40.2464 39.2043L35.868 34.9284C33.3441 32.4041 34.1682 29.8797 37.6709 29.3131L43.1824 28.3857C44.1096 28.2312 45.1913 27.4069 45.6034 26.5827L48.6424 20.5037C50.2907 17.2066 52.9692 17.2066 54.6175 20.5037L57.6566 26.5827C58.0687 27.4069 59.1504 28.2312 60.1291 28.3857L65.6406 29.3131C69.0917 29.8797 69.9159 32.4041 67.3919 34.9284Z" fill="white"/>
</g>
</g>
</svg>
