<svg width="32" height="32" viewBox="0 0 32 32" fill="none" xmlns="http://www.w3.org/2000/svg">
<g id="Ikon minside">
<g id="Group 6">
<g id="Union">
<mask id="path-1-inside-1_318_12976" fill="white">
<path fill-rule="evenodd" clip-rule="evenodd" d="M19.9686 20.5261C22.0922 18.4615 23.0805 14.8888 22.8706 11.1688C22.5176 4.91425 21.4587 0 15.5189 0C9.579 0 8.39938 4.91425 8.04642 11.1688C7.81487 15.2717 8.84401 18.7979 11.0442 20.7384C10.6503 20.8334 10.261 20.9398 9.87706 21.0575C7.93585 21.6527 6.17203 22.5252 4.68629 23.625C3.20055 24.7248 2.022 26.0305 1.21793 27.4675C0.413852 28.9045 0 30.4446 0 32L16 32H32C32 30.4446 31.5861 28.9045 30.7821 27.4675C29.978 26.0305 28.7994 24.7248 27.3137 23.625C25.828 22.5252 24.0641 21.6527 22.1229 21.0575C21.4212 20.8423 20.7012 20.6649 19.9686 20.5261Z"/>
</mask>
<path d="M22.8706 11.1688L24.8674 11.0561L22.8706 11.1688ZM19.9686 20.5261L18.5745 19.0921L15.8154 21.7745L19.5962 22.4911L19.9686 20.5261ZM8.04642 11.1688L6.04959 11.0561L8.04642 11.1688ZM11.0442 20.7384L11.513 22.6827L15.2503 21.7814L12.3671 19.2385L11.0442 20.7384ZM9.87706 21.0575L10.4634 22.9696L10.4634 22.9696L9.87706 21.0575ZM1.21793 27.4675L-0.527416 26.4909H-0.527416L1.21793 27.4675ZM0 32H-2V34H4.76837e-07L0 32ZM16 32V30V32ZM32 32V34H34V32H32ZM30.7821 27.4675L29.0367 28.4441L30.7821 27.4675ZM27.3137 23.625L28.5037 22.0175L27.3137 23.625ZM22.1229 21.0575L21.5366 22.9696L21.5366 22.9696L22.1229 21.0575ZM20.8737 11.2814C21.0652 14.675 20.1306 17.5792 18.5745 19.0921L21.3627 21.9601C24.0538 19.3438 25.0957 15.1027 24.8674 11.0561L20.8737 11.2814ZM15.5189 2C16.7247 2 17.5338 2.24733 18.1024 2.58507C18.666 2.9199 19.1299 3.42457 19.5175 4.16575C20.3465 5.7509 20.6964 8.14001 20.8737 11.2814L24.8674 11.0561C24.6917 7.943 24.3358 4.74773 23.0621 2.31213C22.3984 1.04293 21.4618 -0.0718684 20.1452 -0.853916C18.8337 -1.63305 17.283 -2 15.5189 -2V2ZM10.0432 11.2814C10.2195 8.15776 10.5975 5.76909 11.4489 4.18646C11.8488 3.44312 12.327 2.93109 12.9075 2.5904C13.4922 2.24716 14.3136 2 15.5189 2V-2C13.7542 -2 12.2007 -1.63288 10.8826 -0.859246C9.56026 -0.0830553 8.60786 1.02439 7.92624 2.29142C6.61463 4.72954 6.22628 7.92525 6.04959 11.0561L10.0432 11.2814ZM12.3671 19.2385C10.8217 17.8755 9.82836 15.0891 10.0432 11.2814L6.04959 11.0561C5.80138 15.4544 6.86631 19.7204 9.72123 22.2384L12.3671 19.2385ZM10.5753 18.7941C10.1425 18.8985 9.71399 19.0156 9.29076 19.1454L10.4634 22.9696C10.8079 22.864 11.1581 22.7683 11.513 22.6827L10.5753 18.7941ZM9.29076 19.1454C7.15379 19.8006 5.18162 20.77 3.49634 22.0175L5.87624 25.2325C7.16243 24.2804 8.71792 23.5048 10.4634 22.9696L9.29076 19.1454ZM3.49634 22.0175C1.81087 23.2652 0.431068 24.7779 -0.527416 26.4909L2.96327 28.4441C3.61294 27.2831 4.59024 26.1844 5.87624 25.2325L3.49634 22.0175ZM-0.527416 26.4909C-1.48833 28.2081 -2 30.0825 -2 32H2C2 30.8068 2.31603 29.6008 2.96327 28.4441L-0.527416 26.4909ZM4.76837e-07 34L16 34V30L-4.76837e-07 30L4.76837e-07 34ZM16 34H32V30H16V34ZM34 32C34 30.0825 33.4883 28.2081 32.5274 26.4909L29.0367 28.4441C29.684 29.6008 30 30.8068 30 32H34ZM32.5274 26.4909C31.5689 24.7779 30.1891 23.2652 28.5037 22.0175L26.1238 25.2325C27.4098 26.1844 28.3871 27.283 29.0367 28.4441L32.5274 26.4909ZM28.5037 22.0175C26.8184 20.77 24.8462 19.8006 22.7092 19.1454L21.5366 22.9696C23.2821 23.5048 24.8376 24.2804 26.1238 25.2325L28.5037 22.0175ZM22.7092 19.1454C21.9356 18.9082 21.1442 18.7133 20.341 18.561L19.5962 22.4911C20.2582 22.6165 20.9067 22.7765 21.5366 22.9696L22.7092 19.1454Z" fill="white" mask="url(#path-1-inside-1_318_12976)"/>
</g>
</g>
</g>
</svg>
