<svg width="33" height="44" viewBox="0 0 33 44" fill="none" xmlns="http://www.w3.org/2000/svg">
<g id="Group 109">
<path id="Subtract" fill-rule="evenodd" clip-rule="evenodd" d="M15.904 1.24121L29.92 22.7648C30.2206 23.1802 30.4996 23.6078 30.7544 24.0463L30.8622 24.2118L30.8493 24.212C31.8438 25.9762 32.4466 27.9103 32.4964 29.9176C32.6834 37.4497 25.5512 43.6651 16.7178 43.7972C7.88432 43.9292 0.626798 37.9293 0.507641 30.3959C0.426955 28.4493 0.989427 26.4819 1.99977 24.6433L1.96006 24.6439L15.904 1.24121ZM8.28121 23.25C10.294 21.463 13.056 20.4234 15.9596 20.3598L16.0477 24.1638C14.3331 24.2013 12.7022 24.8152 11.5136 25.8704C10.3251 26.9256 9.6763 28.3357 9.70999 29.7905C9.74368 31.2453 10.4571 32.6255 11.6933 33.6277C12.9295 34.6298 14.5872 35.1717 16.3017 35.1342L16.3898 38.9382C13.4863 39.0017 10.6789 38.084 8.58544 36.3869C6.49196 34.6898 5.28379 32.3523 5.22674 29.8886C5.16969 27.425 6.26841 25.037 8.28121 23.25Z" fill="#0C738C"/>
<path id="Subtract_2" fill-rule="evenodd" clip-rule="evenodd" d="M15.904 1.24121L29.92 22.7648C30.2206 23.1802 30.4996 23.6078 30.7544 24.0463L30.8622 24.2118L30.8493 24.212C31.8438 25.9762 32.4466 27.9103 32.4964 29.9176C32.6834 37.4497 25.5512 43.6651 16.7178 43.7972C7.88432 43.9292 0.626798 37.9293 0.507641 30.3959C0.426955 28.4493 0.989427 26.4819 1.99977 24.6433L1.96006 24.6439L15.904 1.24121ZM8.28121 23.25C10.294 21.463 13.056 20.4234 15.9596 20.3598L16.0477 24.1638C14.3331 24.2013 12.7022 24.8152 11.5136 25.8704C10.3251 26.9256 9.6763 28.3357 9.70999 29.7905C9.74368 31.2453 10.4571 32.6255 11.6933 33.6277C12.9295 34.6298 14.5872 35.1717 16.3017 35.1342L16.3898 38.9382C13.4863 39.0017 10.6789 38.084 8.58544 36.3869C6.49196 34.6898 5.28379 32.3523 5.22674 29.8886C5.16969 27.425 6.26841 25.037 8.28121 23.25Z" fill="#0C738C"/>
<path id="Vector 9" d="M8.80762 13.5823L15.9754 1L21.035 9.3284L22.5458 11.6466L23.9396 13.9694L18.9619 10.4851L16.9709 12.808V18.4216L13.7852 13.5823V10.4851L11.7942 12.0337L8.80762 13.5823Z" fill="#D9D9D9" stroke="#0C738C" stroke-width="0.664557"/>
</g>
</svg>
