<svg width="38" height="38" viewBox="0 0 38 38" fill="none" xmlns="http://www.w3.org/2000/svg">
<g id="Group 273">
<g id="Handlekurv">
<g id="Group 4">
<path id="Rectangle 2" d="M3.31636 9.68892C3.36709 9.17736 3.79741 8.7876 4.31148 8.7876H27.6884C28.2025 8.7876 28.6328 9.17736 28.6835 9.68892L30.7869 30.901C30.8452 31.4894 30.383 31.9997 29.7918 31.9997H2.20812C1.61684 31.9997 1.15466 31.4894 1.21301 30.901L3.31636 9.68892Z" stroke="white" stroke-width="2"/>
<path id="Ellipse 1" d="M22.3721 12.6364C22.3721 9.90018 22.6739 5.95648 21.2981 4.02171C19.9222 2.08694 18.0561 1 16.1103 1C14.1645 1 12.2984 2.08694 10.9226 4.02171C9.54668 5.95648 9.60038 9.90018 9.60038 12.6364" stroke="white" stroke-width="2" stroke-linecap="round"/>
</g>
</g>
<circle id="Ellipse 93" cx="28" cy="28" r="10" fill="#FF5935"/>
</g>
</svg>
