<svg width="24" height="25" viewBox="0 0 24 25" fill="none" xmlns="http://www.w3.org/2000/svg">
<g id="Handlekurv">
<g id="Group 4">
<path id="Rectangle 2" d="M2.44259 7.96748C2.50599 7.32802 3.0439 6.84082 3.68648 6.84082H20.3134C20.956 6.84082 21.4939 7.32802 21.5573 7.96748L23.0357 22.8766C23.1086 23.6121 22.5309 24.2499 21.7918 24.2499H2.20812C1.46901 24.2499 0.891294 23.6121 0.964225 22.8766L2.44259 7.96748Z" stroke="black" stroke-width="1.5"/>
<path id="Ellipse 1" d="M16.7789 9.72727C16.7789 7.67514 17.0053 4.71736 15.9734 3.26628C14.9415 1.81521 13.542 1 12.0826 1C10.6233 1 9.22371 1.81521 8.1918 3.26628C7.15989 4.71736 7.20016 7.67514 7.20016 9.72727" stroke="black" stroke-width="1.5" stroke-linecap="round"/>
</g>
</g>
</svg>
