<svg width="67" height="46" viewBox="0 0 67 46" fill="none" xmlns="http://www.w3.org/2000/svg">
<g id="Processor/ApplePay">
<rect id="BASE" width="66.8046" height="45.8036" rx="3.81741" fill="white"/>
<path id="ApplePay" fill-rule="evenodd" clip-rule="evenodd" d="M15.9304 17.0488C16.8275 17.1245 17.7247 16.5947 18.2854 15.9231C18.8368 15.2325 19.2013 14.3054 19.1078 13.3594C18.3135 13.3972 17.3322 13.8891 16.7715 14.5797C16.2575 15.1757 15.8182 16.1406 15.9304 17.0488ZM26.603 29.2316V14.485H32.0701C34.8925 14.485 36.8644 16.4525 36.8644 19.328C36.8644 22.2035 34.8551 24.1899 31.9954 24.1899H28.8646V29.2316H26.603ZM19.0984 17.2281C18.308 17.1821 17.5868 17.4687 17.0043 17.7002C16.6294 17.8492 16.312 17.9754 16.0705 17.9754C15.7995 17.9754 15.4689 17.8425 15.0978 17.6933L15.0978 17.6933C14.6115 17.4977 14.0555 17.2742 13.4724 17.2849C12.136 17.3038 10.8931 18.07 10.2109 19.2902C8.80903 21.7306 9.84638 25.344 11.2015 27.3304C11.865 28.3141 12.6594 29.3924 13.7061 29.3546C14.1666 29.337 14.4978 29.1947 14.8406 29.0475C15.2353 28.878 15.6453 28.7019 16.2854 28.7019C16.9034 28.7019 17.2955 28.8734 17.6718 29.038C18.0297 29.1946 18.3733 29.3449 18.8835 29.3357C19.9676 29.3168 20.6498 28.3519 21.3133 27.3682C22.0294 26.3124 22.344 25.282 22.3918 25.1256L22.3918 25.1256L22.3974 25.1075C22.3962 25.1063 22.3874 25.1022 22.3718 25.095C22.1324 24.9841 20.3029 24.1363 20.2853 21.8631C20.2677 19.955 21.7365 18.9882 21.9677 18.836C21.9818 18.8268 21.9912 18.8205 21.9955 18.8173C21.061 17.4173 19.6031 17.266 19.0984 17.2281ZM40.9951 29.3451C42.4157 29.3451 43.7334 28.6168 44.3315 27.4628H44.3782V29.2316H46.4716V21.8914C46.4716 19.7631 44.7894 18.3916 42.2007 18.3916C39.7989 18.3916 38.0233 19.7821 37.9579 21.6928H39.9952C40.1634 20.7847 40.9951 20.1888 42.1353 20.1888C43.5184 20.1888 44.2941 20.8415 44.2941 22.0428V22.8562L41.4718 23.0265C38.8457 23.1873 37.4252 24.2751 37.4252 26.1669C37.4252 28.0776 38.8924 29.3451 40.9951 29.3451ZM41.6024 27.5956C40.3968 27.5956 39.6305 27.009 39.6305 26.1103C39.6305 25.1833 40.3688 24.644 41.78 24.5589L44.2939 24.3981V25.2306C44.2939 26.6117 43.1351 27.5956 41.6024 27.5956ZM53.4152 29.8086C52.5086 32.3909 51.4713 33.2422 49.2658 33.2422C49.0975 33.2422 48.5368 33.2233 48.406 33.1855V31.4166C48.5462 31.4355 48.8919 31.4545 49.0695 31.4545C50.0695 31.4545 50.6302 31.0288 50.976 29.9221L51.1816 29.2694L47.3499 18.5335H49.7143L52.3778 27.2452H52.4245L55.088 18.5335H57.387L53.4152 29.8086ZM28.8644 16.4146H31.4718C33.4344 16.4146 34.5558 17.4741 34.5558 19.3378C34.5558 21.2014 33.4344 22.2704 31.4625 22.2704H28.8644V16.4146Z" fill="black"/>
</g>
</svg>
