<svg width="67" height="46" viewBox="0 0 67 46" fill="none" xmlns="http://www.w3.org/2000/svg">
<g id="Processor/Klarna">
<rect id="BASE" width="66.8046" height="45.8036" rx="3.81741" fill="white"/>
<path id="Klarna" fill-rule="evenodd" clip-rule="evenodd" d="M10.3532 29.3522H7.63489V17.1768H10.3532V29.3522ZM17.1397 17.1768H14.4804C14.4804 19.4174 13.4782 21.4739 11.731 22.8194L10.6774 23.6305L14.7597 29.3527H18.1162L14.3599 24.0874C16.1405 22.2648 17.1397 19.8127 17.1397 17.1768ZM21.4755 29.349H18.9084V17.1792H21.4755V29.349ZM29.2316 20.9306V21.4691C28.5389 20.9834 27.7029 20.6979 26.8011 20.6979C24.4146 20.6979 22.4799 22.6867 22.4799 25.14C22.4799 27.5932 24.4146 29.582 26.8011 29.582C27.7029 29.582 28.5389 29.2965 29.2316 28.8109V29.3489H31.6836V20.9306H29.2316ZM29.224 25.1402C29.224 26.3366 28.2293 27.3064 27.0022 27.3064C25.7753 27.3064 24.7805 26.3366 24.7805 25.1402C24.7805 23.9439 25.7753 22.9742 27.0022 22.9742C28.2293 22.9742 29.224 23.9439 29.224 25.1402ZM55.0989 21.4691V20.9306H57.5507V29.3489H55.0989V28.8109C54.4062 29.2965 53.5701 29.582 52.6683 29.582C50.2817 29.582 48.347 27.5932 48.347 25.14C48.347 22.6867 50.2817 20.6979 52.6683 20.6979C53.5701 20.6979 54.4062 20.9834 55.0989 21.4691ZM52.8698 27.3064C54.0969 27.3064 55.0915 26.3366 55.0915 25.1402C55.0915 23.9439 54.0969 22.9742 52.8698 22.9742C51.6427 22.9742 50.6481 23.9439 50.6481 25.1402C50.6481 26.3366 51.6427 27.3064 52.8698 27.3064ZM43.99 20.7042C43.0106 20.7042 42.0837 21.0168 41.4639 21.8791V20.9311H39.0226V29.3489H41.4939V24.925C41.4939 23.6449 42.329 23.018 43.3345 23.018C44.4121 23.018 45.0316 23.6798 45.0316 24.9076V29.3489H47.4806V23.9955C47.4806 22.0365 45.9653 20.7042 43.99 20.7042ZM35.4765 20.9307V22.0272C35.968 21.3695 36.8839 20.9312 37.8796 20.9312V23.3808L37.8707 23.3805L37.8659 23.3803C37.8608 23.38 37.8557 23.3797 37.8504 23.3797C36.8803 23.3797 35.4821 24.0925 35.4821 25.4185V29.3489H32.9662V20.9307H35.4765ZM58.6148 27.945C58.6148 27.0712 59.3037 26.3631 60.1534 26.3631C61.0031 26.3631 61.6921 27.0712 61.6921 27.945C61.6921 28.8184 61.0031 29.5267 60.1534 29.5267C59.3037 29.5267 58.6148 28.8184 58.6148 27.945Z" fill="#FEB4C7"/>
</g>
</svg>
