<svg width="67" height="46" viewBox="0 0 67 46" fill="none" xmlns="http://www.w3.org/2000/svg">
<g id="Processor/Mastercard">
<rect id="BASE" width="66.8046" height="45.8036" rx="3.81741" fill="white"/>
<g id="Mastercard">
<path id="Left" fill-rule="evenodd" clip-rule="evenodd" d="M42.3278 35.8904C49.521 35.8904 55.3523 29.9921 55.3523 22.7162C55.3523 15.4403 49.521 9.54199 42.3278 9.54199C39.104 9.54199 36.1538 10.7267 33.8794 12.6891C31.6051 10.7267 28.6549 9.54208 25.4312 9.54208C18.2379 9.54208 12.4066 15.4404 12.4066 22.7163C12.4066 29.9922 18.2379 35.8905 25.4312 35.8905C28.6549 35.8905 31.6052 34.7058 33.8795 32.7434C36.1539 34.7058 39.104 35.8904 42.3278 35.8904Z" fill="#ED0006"/>
<path id="Right" fill-rule="evenodd" clip-rule="evenodd" d="M33.8794 32.7433C36.6799 30.3269 38.4556 26.7313 38.4556 22.7162C38.4556 18.7011 36.6799 15.1055 33.8794 12.6891C36.1537 10.7267 39.1039 9.54199 42.3277 9.54199C49.521 9.54199 55.3523 15.4403 55.3523 22.7162C55.3523 29.9921 49.521 35.8904 42.3277 35.8904C39.1039 35.8904 36.1537 34.7058 33.8794 32.7433Z" fill="#F9A000"/>
<path id="Middle" fill-rule="evenodd" clip-rule="evenodd" d="M33.8793 32.7435C36.6797 30.3271 38.4554 26.7315 38.4554 22.7165C38.4554 18.7014 36.6797 15.1058 33.8793 12.6895C31.0789 15.1058 29.3032 18.7014 29.3032 22.7165C29.3032 26.7315 31.0789 30.3271 33.8793 32.7435Z" fill="#FF5E00"/>
</g>
</g>
</svg>
