<svg width="67" height="46" viewBox="0 0 67 46" fill="none" xmlns="http://www.w3.org/2000/svg">
<g id="Processor/PayPal">
<rect id="BASE" width="66.8046" height="45.8036" rx="3.81741" fill="white"/>
<g id="Group 75">
<path id="Vector" fill-rule="evenodd" clip-rule="evenodd" d="M17.4143 17.2979H14.142C13.918 17.2979 13.7276 17.4606 13.6927 17.6815L12.3692 26.0719C12.3428 26.2375 12.4711 26.3868 12.639 26.3868H14.2013C14.4252 26.3868 14.6157 26.224 14.6506 26.0026L15.0076 23.7396C15.042 23.518 15.2329 23.3555 15.4564 23.3555H16.4923C18.6479 23.3555 19.8919 22.3125 20.217 20.2456C20.3634 19.3414 20.2232 18.6309 19.7996 18.1332C19.3346 17.587 18.5095 17.2979 17.4143 17.2979ZM17.7919 20.3623C17.613 21.5364 16.7158 21.5364 15.8483 21.5364H15.3545L15.7009 19.3436C15.7215 19.2112 15.8363 19.1136 15.9703 19.1136H16.1966C16.7875 19.1136 17.345 19.1136 17.6331 19.4504C17.8047 19.6514 17.8574 19.9498 17.7919 20.3623ZM27.1963 20.3247H25.6292C25.4957 20.3247 25.3803 20.4223 25.3597 20.5549L25.2904 20.9931L25.1808 20.8344C24.8416 20.342 24.0852 20.1774 23.3301 20.1774C21.5983 20.1774 20.1193 21.4888 19.8313 23.3285C19.6816 24.246 19.8944 25.1234 20.415 25.7354C20.8926 26.298 21.5759 26.5324 22.3888 26.5324C23.784 26.5324 24.5579 25.6353 24.5579 25.6353L24.488 26.0708C24.4616 26.2373 24.5898 26.3865 24.7568 26.3865H26.1684C26.3929 26.3865 26.5823 26.2238 26.6177 26.0024L27.4647 20.6395C27.4914 20.4746 27.3637 20.3247 27.1963 20.3247ZM25.0119 23.3743C24.8606 24.2695 24.1501 24.8704 23.244 24.8704C22.7889 24.8704 22.4251 24.7245 22.1917 24.4479C21.9601 24.1734 21.872 23.7824 21.9457 23.3471C22.087 22.4595 22.8095 21.8391 23.7019 21.8391C24.1467 21.8391 24.5086 21.9868 24.7468 22.2657C24.9855 22.5476 25.0803 22.9408 25.0119 23.3743ZM33.9674 20.3245H35.5422C35.7628 20.3245 35.8914 20.5718 35.7661 20.7527L30.5286 28.3119C30.4438 28.4343 30.3041 28.5072 30.1548 28.5072H28.582C28.3606 28.5072 28.2312 28.2579 28.3595 28.0765L29.9903 25.7748L28.2558 20.6851C28.1958 20.5082 28.3265 20.3245 28.5147 20.3245H30.062C30.2631 20.3245 30.4405 20.4564 30.4985 20.6488L31.419 23.7228L33.591 20.5239C33.676 20.3991 33.8173 20.3245 33.9674 20.3245Z" fill="#253B80"/>
<path id="Vector_2" fill-rule="evenodd" clip-rule="evenodd" d="M51.042 26.0714L52.385 17.5276C52.4056 17.395 52.5205 17.2973 52.654 17.2969H54.1659C54.3329 17.2969 54.4611 17.4465 54.4348 17.6122L53.1104 26.0021C53.0758 26.2235 52.8854 26.3862 52.6611 26.3862H51.3108C51.1439 26.3862 51.0156 26.237 51.042 26.0714ZM40.7568 17.2973H37.4838C37.2604 17.2973 37.0699 17.4601 37.0349 17.681L35.7115 26.0714C35.6851 26.237 35.8133 26.3862 35.9805 26.3862H37.6598C37.8159 26.3862 37.9495 26.2724 37.9738 26.1174L38.3494 23.7391C38.3839 23.5175 38.5748 23.355 38.7982 23.355H39.8336C41.9897 23.355 43.2335 22.3119 43.5587 20.2451C43.7056 19.3409 43.5645 18.6304 43.1411 18.1327C42.6763 17.5865 41.852 17.2973 40.7568 17.2973ZM41.1343 20.3618C40.9558 21.5359 40.0586 21.5359 39.1906 21.5359H38.6972L39.0442 19.3431C39.0648 19.2107 39.1786 19.1131 39.313 19.1131H39.5393C40.1299 19.1131 40.6879 19.1131 40.9757 19.4498C41.1476 19.6509 41.1998 19.9493 41.1343 20.3618ZM50.5378 20.3241H48.9718C48.8372 20.3241 48.723 20.4218 48.7028 20.5544L48.6335 20.9926L48.5234 20.8338C48.1842 20.3414 47.4282 20.1769 46.6732 20.1769C44.9414 20.1769 43.4629 21.4883 43.1748 23.328C43.0255 24.2455 43.2374 25.1229 43.758 25.7349C44.2365 26.2974 44.919 26.5319 45.7319 26.5319C47.1271 26.5319 47.9008 25.6348 47.9008 25.6348L47.831 26.0703C47.8047 26.2368 47.9329 26.386 48.101 26.386H49.5119C49.7353 26.386 49.9258 26.2233 49.9608 26.0019L50.8082 20.639C50.8341 20.474 50.7059 20.3241 50.5378 20.3241ZM48.3536 23.3738C48.2033 24.2689 47.4918 24.8698 46.5855 24.8698C46.1313 24.8698 45.7668 24.7239 45.5332 24.4474C45.3016 24.1728 45.2146 23.7818 45.2874 23.3466C45.4294 22.4589 46.151 21.8386 47.0434 21.8386C47.4885 21.8386 47.8501 21.9862 48.0886 22.2652C48.3281 22.5471 48.4229 22.9403 48.3536 23.3738Z" fill="#179BD7"/>
</g>
</g>
</svg>
