<svg width="67" height="46" viewBox="0 0 67 46" fill="none" xmlns="http://www.w3.org/2000/svg">
<g id="Processor/Visa">
<rect id="BASE" width="66.8046" height="45.8036" rx="3.81741" fill="white"/>
<path id="polygon9" d="M28.581 30.6937H24.8037L27.1663 16.0869H30.9434L28.581 30.6937Z" fill="#00579F"/>
<path id="path11" d="M42.2726 16.4441C41.5275 16.1486 40.3458 15.8223 38.8847 15.8223C35.1545 15.8223 32.5277 17.8112 32.5116 20.6547C32.4806 22.7527 34.3923 23.9179 35.8221 24.6174C37.2834 25.3322 37.7802 25.7988 37.7802 26.4359C37.7653 27.4145 36.5993 27.8656 35.5118 27.8656C34.0038 27.8656 33.1957 27.633 31.9677 27.0886L31.4703 26.8552L30.9418 30.1341C31.8277 30.5377 33.4599 30.8958 35.1545 30.9115C39.1179 30.9115 41.6982 28.9534 41.7287 25.9231C41.7438 24.2603 40.7344 22.9862 38.5581 21.9451C37.237 21.2768 36.4279 20.8261 36.4279 20.1423C36.4434 19.5206 37.1122 18.8839 38.6035 18.8839C39.8315 18.8527 40.7338 19.1478 41.4172 19.4432L41.7589 19.5983L42.2726 16.4441Z" fill="#00579F"/>
<path id="path13" d="M47.2949 25.519C47.606 24.6799 48.803 21.4322 48.803 21.4322C48.7873 21.4634 49.1134 20.5775 49.2999 20.0337L49.5639 21.2923C49.5639 21.2923 50.2792 24.7887 50.4345 25.519C49.8442 25.519 48.041 25.519 47.2949 25.519ZM51.9575 16.0869H49.0357C48.1347 16.0869 47.4502 16.3509 47.0615 17.2988L41.4508 30.6935H45.4142C45.4142 30.6935 46.0667 28.8907 46.207 28.5024C46.6418 28.5024 50.4973 28.5024 51.0567 28.5024C51.1651 29.0152 51.5074 30.6935 51.5074 30.6935H55.0048L51.9575 16.0869Z" fill="#00579F"/>
<path id="path15" d="M21.6484 16.0869L17.9492 26.0473L17.545 24.0272C16.8611 21.6963 14.7162 19.1638 12.3226 17.9046L15.711 30.6782H19.7053L25.6426 16.0869H21.6484Z" fill="#00579F"/>
<path id="path17" d="M14.5142 16.0869H8.43693L8.37476 16.3821C13.1154 17.5944 16.2551 20.5165 17.545 24.0288L16.2239 17.3149C16.0064 16.3819 15.338 16.1177 14.5142 16.0869Z" fill="#FAA61A"/>
</g>
</svg>
